<svg width="484" height="567" viewBox="0 0 484 567" fill="none" xmlns="http://www.w3.org/2000/svg">
<g opacity="0.1">
<path fill-rule="evenodd" clip-rule="evenodd" d="M0 2C0 0.89543 0.895431 0 2 0H18.625C19.7296 0 20.625 0.895431 20.625 2V25.225C20.625 26.3296 19.7296 27.225 18.625 27.225H2C0.895431 27.225 0 26.3296 0 25.225V2Z" transform="translate(55.555 97.6246) rotate(-60)" stroke="black"/>
<path fill-rule="evenodd" clip-rule="evenodd" d="M0 0.5C0 0.223858 0.223858 0 0.5 0H14.4407C14.7169 0 14.9408 0.223858 14.9408 0.5V5.869C14.9408 6.14514 14.7169 6.369 14.4408 6.369H0.5C0.223858 6.369 0 6.14514 0 5.869V0.5Z" transform="translate(60.1462 96.9984) rotate(-60)" stroke="black"/>
<path fill-rule="evenodd" clip-rule="evenodd" d="M0 0.5C0 0.223858 0.223858 0 0.5 0H2.41225C2.68839 0 2.91225 0.223858 2.91225 0.5V1.47175C2.91225 1.74789 2.68839 1.97175 2.41225 1.97175H0.5C0.223858 1.97175 0 1.74789 0 1.47175V0.5Z" transform="translate(68.4269 101.779) rotate(-60)" stroke="black"/>
<path fill-rule="evenodd" clip-rule="evenodd" d="M0 0.5C0 0.223858 0.223858 0 0.5 0H2.41225C2.68839 0 2.91225 0.223858 2.91225 0.5V1.47175C2.91225 1.74789 2.68839 1.97175 2.41225 1.97175H0.5C0.223858 1.97175 0 1.74789 0 1.47175V0.5Z" transform="translate(71.4382 96.5636) rotate(-60)" stroke="black"/>
<path fill-rule="evenodd" clip-rule="evenodd" d="M0 0.5C0 0.223858 0.223858 0 0.5 0H2.41225C2.68839 0 2.91225 0.223858 2.91225 0.5V1.47175C2.91225 1.74789 2.68839 1.97175 2.41225 1.97175H0.5C0.223858 1.97175 0 1.74789 0 1.47175V0.5Z" transform="translate(74.4453 91.3551) rotate(-60)" stroke="black"/>
<path fill-rule="evenodd" clip-rule="evenodd" d="M0 0.5C0 0.223858 0.223858 0 0.5 0H2.41225C2.68839 0 2.91225 0.223858 2.91225 0.5V1.47175C2.91225 1.74789 2.68839 1.97175 2.41225 1.97175H0.5C0.223858 1.97175 0 1.74789 0 1.47175V0.5Z" transform="translate(72.0422 103.866) rotate(-60)" stroke="black"/>
<path fill-rule="evenodd" clip-rule="evenodd" d="M0 0.5C0 0.223858 0.223858 0 0.5 0H2.41225C2.68839 0 2.91225 0.223858 2.91225 0.5V1.47175C2.91225 1.74789 2.68839 1.97175 2.41225 1.97175H0.5C0.223858 1.97175 0 1.74789 0 1.47175V0.5Z" transform="translate(75.0534 98.6508) rotate(-60)" stroke="black"/>
<path fill-rule="evenodd" clip-rule="evenodd" d="M0 0.5C0 0.223858 0.223858 0 0.5 0H2.41225C2.68839 0 2.91225 0.223858 2.91225 0.5V1.47175C2.91225 1.74789 2.68839 1.97175 2.41225 1.97175H0.5C0.223858 1.97175 0 1.74789 0 1.47175V0.5Z" transform="translate(78.0605 93.4424) rotate(-60)" stroke="black"/>
<path fill-rule="evenodd" clip-rule="evenodd" d="M0 0.5C0 0.223858 0.223858 0 0.5 0H2.41225C2.68839 0 2.91225 0.223858 2.91225 0.5V1.47175C2.91225 1.74789 2.68839 1.97175 2.41225 1.97175H0.5C0.223858 1.97175 0 1.74789 0 1.47175V0.5Z" transform="translate(75.6646 105.958) rotate(-60)" stroke="black"/>
<path fill-rule="evenodd" clip-rule="evenodd" d="M0 0.5C0 0.223858 0.223858 0 0.5 0H2.41225C2.68839 0 2.91225 0.223858 2.91225 0.5V1.47175C2.91225 1.74789 2.68839 1.97175 2.41225 1.97175H0.5C0.223858 1.97175 0 1.74789 0 1.47175V0.5Z" transform="translate(78.6758 100.742) rotate(-60)" stroke="black"/>
<path fill-rule="evenodd" clip-rule="evenodd" d="M0 0.5C0 0.223858 0.223858 0 0.5 0H2.41225C2.68839 0 2.91225 0.223858 2.91225 0.5V1.47175C2.91225 1.74789 2.68839 1.97175 2.41225 1.97175H0.5C0.223858 1.97175 0 1.74789 0 1.47175V0.5Z" transform="translate(81.6829 95.5337) rotate(-60)" stroke="black"/>
<path fill-rule="evenodd" clip-rule="evenodd" d="M0 2C0 0.895429 0.895431 0 2 0H30.5C31.6046 0 32.5 0.895431 32.5 2V40.9C32.5 42.0046 31.6046 42.9 30.5 42.9H2C0.895431 42.9 0 42.0046 0 40.9V2Z" transform="translate(384.815 271.865) rotate(-60)" stroke="black"/>
<path fill-rule="evenodd" clip-rule="evenodd" d="M0 0.5C0 0.223858 0.223858 0 0.5 0H23.043C23.3191 0 23.543 0.223858 23.543 0.5V9.536C23.543 9.81214 23.3191 10.036 23.043 10.036H0.500001C0.223858 10.036 0 9.81214 0 9.536V0.5Z" transform="translate(392.05 270.878) rotate(-60)" stroke="black"/>
<path fill-rule="evenodd" clip-rule="evenodd" d="M0 0.5C0 0.223858 0.223858 0 0.5 0H4.089C4.36514 0 4.589 0.223858 4.589 0.5V2.607C4.589 2.88314 4.36514 3.107 4.089 3.107H0.5C0.223858 3.107 0 2.88314 0 2.607V0.5Z" transform="translate(405.099 278.411) rotate(-60)" stroke="black"/>
<path fill-rule="evenodd" clip-rule="evenodd" d="M0 0.5C0 0.223858 0.223858 0 0.5 0H4.089C4.36514 0 4.589 0.223858 4.589 0.5V2.607C4.589 2.88314 4.36514 3.107 4.089 3.107H0.5C0.223858 3.107 0 2.88314 0 2.607V0.5Z" transform="translate(409.844 270.193) rotate(-60)" stroke="black"/>
<path fill-rule="evenodd" clip-rule="evenodd" d="M0 0.5C0 0.223858 0.223858 0 0.5 0H4.089C4.36514 0 4.589 0.223858 4.589 0.5V2.607C4.589 2.88314 4.36514 3.107 4.089 3.107H0.5C0.223858 3.107 0 2.88314 0 2.607V0.5Z" transform="translate(414.582 261.985) rotate(-60)" stroke="black"/>
<path fill-rule="evenodd" clip-rule="evenodd" d="M0 0.5C0 0.223858 0.223858 0 0.5 0H4.089C4.36514 0 4.589 0.223858 4.589 0.5V2.607C4.589 2.88314 4.36514 3.107 4.089 3.107H0.5C0.223858 3.107 0 2.88314 0 2.607V0.5Z" transform="translate(410.795 281.7) rotate(-60)" stroke="black"/>
<path fill-rule="evenodd" clip-rule="evenodd" d="M0 0.5C0 0.223858 0.223858 0 0.5 0H4.089C4.36514 0 4.589 0.223858 4.589 0.5V2.607C4.589 2.88314 4.36514 3.107 4.089 3.107H0.5C0.223858 3.107 0 2.88314 0 2.607V0.5Z" transform="translate(415.54 273.482) rotate(-60)" stroke="black"/>
<path fill-rule="evenodd" clip-rule="evenodd" d="M0 0.5C0 0.223858 0.223858 0 0.5 0H4.089C4.36514 0 4.589 0.223858 4.589 0.5V2.607C4.589 2.88314 4.36514 3.107 4.089 3.107H0.5C0.223858 3.107 0 2.88314 0 2.607V0.5Z" transform="translate(420.279 265.274) rotate(-60)" stroke="black"/>
<path fill-rule="evenodd" clip-rule="evenodd" d="M0 0.5C0 0.223858 0.223858 0 0.5 0H4.089C4.36514 0 4.589 0.223858 4.589 0.5V2.607C4.589 2.88314 4.36514 3.107 4.089 3.107H0.5C0.223858 3.107 0 2.88314 0 2.607V0.5Z" transform="translate(416.503 284.996) rotate(-60)" stroke="black"/>
<path fill-rule="evenodd" clip-rule="evenodd" d="M0 0.5C0 0.223858 0.223858 0 0.5 0H4.089C4.36514 0 4.589 0.223858 4.589 0.5V2.607C4.589 2.88314 4.36514 3.107 4.089 3.107H0.5C0.223858 3.107 0 2.88314 0 2.607V0.5Z" transform="translate(421.248 276.777) rotate(-60)" stroke="black"/>
<path fill-rule="evenodd" clip-rule="evenodd" d="M0 0.5C0 0.223858 0.223858 0 0.5 0H4.089C4.36514 0 4.589 0.223858 4.589 0.5V2.607C4.589 2.88314 4.36514 3.107 4.089 3.107H0.5C0.223858 3.107 0 2.88314 0 2.607V0.5Z" transform="translate(425.987 268.57) rotate(-60)" stroke="black"/>
<path fill-rule="evenodd" clip-rule="evenodd" d="M0 2C0 0.89543 0.895431 0 2 0H18.625C19.7296 0 20.625 0.895431 20.625 2V25.225C20.625 26.3296 19.7296 27.225 18.625 27.225H2C0.895431 27.225 0 26.3296 0 25.225V2Z" transform="translate(424.531 59.7288) rotate(27)" stroke="black"/>
<path fill-rule="evenodd" clip-rule="evenodd" d="M0 0.5C0 0.223858 0.223858 0 0.5 0H14.4407C14.7169 0 14.9408 0.223858 14.9408 0.5V5.869C14.9408 6.14514 14.7169 6.369 14.4408 6.369H0.5C0.223858 6.369 0 6.14514 0 5.869V0.5Z" transform="translate(425.397 64.281) rotate(27)" stroke="black"/>
<path fill-rule="evenodd" clip-rule="evenodd" d="M0 0.5C0 0.223858 0.223858 0 0.5 0H2.41225C2.68839 0 2.91225 0.223858 2.91225 0.5V1.47175C2.91225 1.74789 2.68839 1.97175 2.41225 1.97175H0.5C0.223858 1.97175 0 1.74789 0 1.47175V0.5Z" transform="translate(421.056 72.8006) rotate(27)" stroke="black"/>
<path fill-rule="evenodd" clip-rule="evenodd" d="M0 0.5C0 0.223858 0.223858 0 0.5 0H2.41225C2.68839 0 2.91225 0.223858 2.91225 0.5V1.47175C2.91225 1.74789 2.68839 1.97175 2.41225 1.97175H0.5C0.223858 1.97175 0 1.74789 0 1.47175V0.5Z" transform="translate(426.422 75.5347) rotate(27)" stroke="black"/>
<path fill-rule="evenodd" clip-rule="evenodd" d="M0 0.5C0 0.223858 0.223858 0 0.5 0H2.41225C2.68839 0 2.91225 0.223858 2.91225 0.5V1.47175C2.91225 1.74789 2.68839 1.97175 2.41225 1.97175H0.5C0.223858 1.97175 0 1.74789 0 1.47175V0.5Z" transform="translate(431.78 78.2652) rotate(27)" stroke="black"/>
<path fill-rule="evenodd" clip-rule="evenodd" d="M0 0.5C0 0.223858 0.223858 0 0.5 0H2.41225C2.68839 0 2.91225 0.223858 2.91225 0.5V1.47175C2.91225 1.74789 2.68839 1.97175 2.41225 1.97175H0.5C0.223858 1.97175 0 1.74789 0 1.47175V0.5Z" transform="translate(419.16 76.5201) rotate(27)" stroke="black"/>
<path fill-rule="evenodd" clip-rule="evenodd" d="M0 0.5C0 0.223858 0.223858 0 0.5 0H2.41225C2.68839 0 2.91225 0.223858 2.91225 0.5V1.47175C2.91225 1.74789 2.68839 1.97175 2.41225 1.97175H0.5C0.223858 1.97175 0 1.74789 0 1.47175V0.5Z" transform="translate(424.526 79.2542) rotate(27)" stroke="black"/>
<path fill-rule="evenodd" clip-rule="evenodd" d="M0 0.5C0 0.223858 0.223858 0 0.5 0H2.41225C2.68839 0 2.91225 0.223858 2.91225 0.5V1.47175C2.91225 1.74789 2.68839 1.97175 2.41225 1.97175H0.5C0.223858 1.97175 0 1.74789 0 1.47175V0.5Z" transform="translate(429.885 81.9847) rotate(27)" stroke="black"/>
<path fill-rule="evenodd" clip-rule="evenodd" d="M0 0.5C0 0.223858 0.223858 0 0.5 0H2.41225C2.68839 0 2.91225 0.223858 2.91225 0.5V1.47175C2.91225 1.74789 2.68839 1.97175 2.41225 1.97175H0.5C0.223858 1.97175 0 1.74789 0 1.47175V0.5Z" transform="translate(417.261 80.2469) rotate(27)" stroke="black"/>
<path fill-rule="evenodd" clip-rule="evenodd" d="M0 0.5C0 0.223858 0.223858 0 0.5 0H2.41225C2.68839 0 2.91225 0.223858 2.91225 0.5V1.47175C2.91225 1.74789 2.68839 1.97175 2.41225 1.97175H0.5C0.223858 1.97175 0 1.74789 0 1.47175V0.5Z" transform="translate(422.628 82.9811) rotate(27)" stroke="black"/>
<path fill-rule="evenodd" clip-rule="evenodd" d="M0 0.5C0 0.223858 0.223858 0 0.5 0H2.41225C2.68839 0 2.91225 0.223858 2.91225 0.5V1.47175C2.91225 1.74789 2.68839 1.97175 2.41225 1.97175H0.5C0.223858 1.97175 0 1.74789 0 1.47175V0.5Z" transform="translate(427.986 85.7115) rotate(27)" stroke="black"/>
<path fill-rule="evenodd" clip-rule="evenodd" d="M0 2C0 0.89543 0.895431 0 2 0H18.625C19.7296 0 20.625 0.895431 20.625 2V25.225C20.625 26.3296 19.7296 27.225 18.625 27.225H2C0.895431 27.225 0 26.3296 0 25.225V2Z" transform="translate(213.58 501.46) rotate(-32)" stroke="black"/>
<path fill-rule="evenodd" clip-rule="evenodd" d="M0 0.5C0 0.223858 0.223858 0 0.5 0H14.4407C14.7169 0 14.9408 0.223858 14.9408 0.5V5.869C14.9408 6.14514 14.7169 6.369 14.4408 6.369H0.5C0.223858 6.369 0 6.14514 0 5.869V0.5Z" transform="translate(217.928 503.063) rotate(-32)" stroke="black"/>
<path fill-rule="evenodd" clip-rule="evenodd" d="M0 0.5C0 0.223858 0.223858 0 0.5 0H2.41225C2.68839 0 2.91225 0.223858 2.91225 0.5V1.47175C2.91225 1.74789 2.68839 1.97175 2.41225 1.97175H0.5C0.223858 1.97175 0 1.74789 0 1.47175V0.5Z" transform="translate(222.995 511.171) rotate(-32)" stroke="black"/>
<path fill-rule="evenodd" clip-rule="evenodd" d="M0 0.5C0 0.223858 0.223858 0 0.5 0H2.41225C2.68839 0 2.91225 0.223858 2.91225 0.5V1.47175C2.91225 1.74789 2.68839 1.97175 2.41225 1.97175H0.5C0.223858 1.97175 0 1.74789 0 1.47175V0.5Z" transform="translate(228.103 507.98) rotate(-32)" stroke="black"/>
<path fill-rule="evenodd" clip-rule="evenodd" d="M0 0.5C0 0.223858 0.223858 0 0.5 0H2.41225C2.68839 0 2.91225 0.223858 2.91225 0.5V1.47175C2.91225 1.74789 2.68839 1.97175 2.41225 1.97175H0.5C0.223858 1.97175 0 1.74789 0 1.47175V0.5Z" transform="translate(233.203 504.793) rotate(-32)" stroke="black"/>
<path fill-rule="evenodd" clip-rule="evenodd" d="M0 0.5C0 0.223858 0.223858 0 0.5 0H2.41225C2.68839 0 2.91225 0.223858 2.91225 0.5V1.47175C2.91225 1.74789 2.68839 1.97175 2.41225 1.97175H0.5C0.223858 1.97175 0 1.74789 0 1.47175V0.5Z" transform="translate(225.207 514.712) rotate(-32)" stroke="black"/>
<path fill-rule="evenodd" clip-rule="evenodd" d="M0 0.5C0 0.223858 0.223858 0 0.5 0H2.41225C2.68839 0 2.91225 0.223858 2.91225 0.5V1.47175C2.91225 1.74789 2.68839 1.97175 2.41225 1.97175H0.5C0.223858 1.97175 0 1.74789 0 1.47175V0.5Z" transform="translate(230.315 511.52) rotate(-32)" stroke="black"/>
<path fill-rule="evenodd" clip-rule="evenodd" d="M0 0.5C0 0.223858 0.223858 0 0.5 0H2.41225C2.68839 0 2.91225 0.223858 2.91225 0.5V1.47175C2.91225 1.74789 2.68839 1.97175 2.41225 1.97175H0.5C0.223858 1.97175 0 1.74789 0 1.47175V0.5Z" transform="translate(235.415 508.333) rotate(-32)" stroke="black"/>
<path fill-rule="evenodd" clip-rule="evenodd" d="M0 0.5C0 0.223858 0.223858 0 0.5 0H2.41225C2.68839 0 2.91225 0.223858 2.91225 0.5V1.47175C2.91225 1.74789 2.68839 1.97175 2.41225 1.97175H0.5C0.223858 1.97175 0 1.74789 0 1.47175V0.5Z" transform="translate(227.424 518.259) rotate(-32)" stroke="black"/>
<path fill-rule="evenodd" clip-rule="evenodd" d="M0 0.5C0 0.223858 0.223858 0 0.5 0H2.41225C2.68839 0 2.91225 0.223858 2.91225 0.5V1.47175C2.91225 1.74789 2.68839 1.97175 2.41225 1.97175H0.5C0.223858 1.97175 0 1.74789 0 1.47175V0.5Z" transform="translate(232.531 515.067) rotate(-32)" stroke="black"/>
<path fill-rule="evenodd" clip-rule="evenodd" d="M0 0.5C0 0.223858 0.223858 0 0.5 0H2.41225C2.68839 0 2.91225 0.223858 2.91225 0.5V1.47175C2.91225 1.74789 2.68839 1.97175 2.41225 1.97175H0.5C0.223858 1.97175 0 1.74789 0 1.47175V0.5Z" transform="translate(237.632 511.88) rotate(-32)" stroke="black"/>
<path d="M0 0H8.9505" transform="translate(283.395 522.629) rotate(-30)" stroke="black"/>
<path d="M0 0H8.9505" transform="translate(284.941 525.306) rotate(-30)" stroke="black"/>
<path d="M0 4.1985L5.3325 13.4325L6.75 9.936L10.476 10.4625L4.4415 0" transform="translate(308.472 537.55) rotate(-30)" stroke="black"/>
<path d="M10.476 4.1985L5.1435 13.4325L3.726 9.936L0 10.4625L6.0345 0" transform="translate(293.18 546.379) rotate(-30)" stroke="black"/>
<path fill-rule="evenodd" clip-rule="evenodd" d="M5.94 11.88C9.22057 11.88 11.88 9.22057 11.88 5.94C11.88 2.65943 9.22057 0 5.94 0C2.65943 0 0 2.65943 0 5.94C0 9.22057 2.65943 11.88 5.94 11.88Z" transform="translate(295.155 533.547) rotate(-30)" stroke="black"/>
<path fill-rule="evenodd" clip-rule="evenodd" d="M9.207 0.756L10.908 0L12.2175 1.323L14.0805 1.2285L14.8095 2.9295L16.5915 3.51L16.659 5.373L18.1035 6.561L17.496 8.316L18.414 9.936L17.2125 11.367L17.4825 13.2165L15.849 14.1075L15.444 15.93L13.5945 16.1595L12.555 17.712L10.7325 17.2665L9.207 18.333L7.6815 17.2665L5.8725 17.712L4.8195 16.1595L2.97 15.93L2.565 14.1075L0.9315 13.2165L1.2015 11.367L0 9.936L0.918 8.316L0.3105 6.561L1.755 5.373L1.8225 3.51L3.6045 2.9295L4.3335 1.2285L6.1965 1.323L7.506 0L9.207 0.756V0.756Z" transform="translate(290.713 532.387) rotate(-30)" stroke="black"/>
<path d="M12.663 0H0" transform="translate(304.347 550.251) rotate(-30)" stroke="black"/>
<path d="M1.944 39.636C0.792 39.3 0 38.244 0 37.044V2.7C0 1.20883 1.20883 0 2.7 0H27.405C28.8962 0 30.105 1.20883 30.105 2.7V37.044C30.1026 38.2316 29.3245 39.2781 28.188 39.6225" transform="translate(276.911 520.199) rotate(-30)" stroke="black"/>
<path fill-rule="evenodd" clip-rule="evenodd" d="M0 0H8.29V4.98H0V0Z" transform="translate(19.2776 281.758) rotate(-82)" stroke="black"/>
<path d="M0 2.81C0 1.25808 1.25808 0 2.81 0C4.36192 0 5.62 1.25808 5.62 2.81" transform="translate(16.6801 280.05) rotate(-82)" stroke="black"/>
<path d="M0 2.75V0" transform="translate(40.2955 286.045) rotate(-82)" stroke="black"/>
<path d="M0 6.35V0" transform="translate(37.1105 282.841) rotate(-82)" stroke="black"/>
<path d="M0 5.16V0" transform="translate(38.6689 280.303) rotate(-82)" stroke="black"/>
<path d="M0 8.66V0" transform="translate(35.5829 277.112) rotate(-82)" stroke="black"/>
<path d="M0 7.26V0" transform="translate(37.3492 274.604) rotate(-82)" stroke="black"/>
<path d="M15.29 0H20.29C21.3946 0 22.29 0.89543 22.29 2V27.44C22.29 28.5446 21.3946 29.44 20.29 29.44H2C0.89543 29.44 0 28.5446 0 27.44V2C0 0.89543 0.89543 0 2 0H7" transform="translate(19.4012 288.854) rotate(-82)" stroke="black"/>
<path d="M13.38 0H17.98C18.2561 0 18.48 0.223858 18.48 0.5V24.58C18.48 24.8561 18.2561 25.08 17.98 25.08H0.5C0.223858 25.08 0 24.8561 0 24.58V0.5C0 0.223858 0.223858 0 0.5 0H5.1" transform="translate(21.8258 287.266) rotate(-82)" stroke="black"/>
<path fill-rule="evenodd" clip-rule="evenodd" d="M0 0H8.29V4.98H0V0Z" transform="translate(278.392 463.934) rotate(36)" stroke="black"/>
<path d="M0 2.81C0 1.25808 1.25808 0 2.81 0C4.36192 0 5.62 1.25808 5.62 2.81" transform="translate(281.12 462.443) rotate(36)" stroke="black"/>
<path d="M0 2.75V0" transform="translate(264.74 480.479) rotate(36)" stroke="black"/>
<path d="M0 6.35V0" transform="translate(269.064 479.172) rotate(36)" stroke="black"/>
<path d="M0 5.16V0" transform="translate(270.573 481.739) rotate(36)" stroke="black"/>
<path d="M0 8.66V0" transform="translate(274.839 480.512) rotate(36)" stroke="black"/>
<path d="M0 7.26V0" transform="translate(276.225 483.249) rotate(36)" stroke="black"/>
<path d="M15.29 0H20.29C21.3946 0 22.29 0.89543 22.29 2V27.44C22.29 28.5446 21.3946 29.44 20.29 29.44H2C0.89543 29.44 0 28.5446 0 27.44V2C0 0.89543 0.89543 0 2 0H7" transform="translate(272.068 460.712) rotate(36)" stroke="black"/>
<path d="M13.38 0H17.98C18.2561 0 18.48 0.223858 18.48 0.5V24.58C18.48 24.8561 18.2561 25.08 17.98 25.08H0.5C0.223858 25.08 0 24.8561 0 24.58V0.5C0 0.223858 0.223858 0 0.5 0H5.1" transform="translate(272.332 463.598) rotate(36)" stroke="black"/>
<path fill-rule="evenodd" clip-rule="evenodd" d="M0 0H10.9843V6.5985H0V0Z" transform="translate(440.574 120.537) rotate(39)" stroke="black"/>
<path d="M0 3.72325C0 1.66696 1.66696 0 3.72325 0C5.77954 0 7.4465 1.66696 7.4465 3.72325" transform="translate(444.286 118.753) rotate(39)" stroke="black"/>
<path d="M0 3.64375V0" transform="translate(421.362 141.483) rotate(39)" stroke="black"/>
<path d="M0 8.41375V0" transform="translate(427.175 140.052) rotate(39)" stroke="black"/>
<path d="M0 6.837V0" transform="translate(428.994 143.554) rotate(39)" stroke="black"/>
<path d="M0 11.4745V0" transform="translate(434.723 142.226) rotate(39)" stroke="black"/>
<path d="M0 9.6195V0" transform="translate(436.367 145.944) rotate(39)" stroke="black"/>
<path d="M20.2593 0H26.8843C28.3478 0 29.5343 1.18645 29.5343 2.65V36.358C29.5343 37.8216 28.3478 39.008 26.8843 39.008H2.65C1.18645 39.008 0 37.8216 0 36.358V2.65C0 1.18645 1.18645 0 2.65 0H9.275" transform="translate(432.43 115.835) rotate(39)" stroke="black"/>
<path d="M17.7285 0H23.8235C24.1894 0 24.486 0.296611 24.486 0.6625V32.5685C24.486 32.9344 24.1894 33.231 23.8235 33.231H0.6625C0.296611 33.231 0 32.9344 0 32.5685V0.6625C0 0.296611 0.296611 0 0.6625 0H6.7575" transform="translate(432.579 119.672) rotate(39)" stroke="black"/>
<path d="M0 0C0 1.3395 3.66225 2.43675 8.16525 2.43675C12.6682 2.43675 16.3305 1.3395 16.3305 0" transform="translate(58.3792 172.225) rotate(-49)" stroke="black"/>
<path d="M0 0C0 1.3395 3.66225 2.43675 8.16525 2.43675C12.6682 2.43675 16.3305 1.3395 16.3305 0" transform="translate(54.9162 169.215) rotate(-49)" stroke="black"/>
<path d="M0 0.0285C0 1.368 3.60525 2.43675 8.16525 2.43675C12.7252 2.43675 16.3305 1.3395 16.3305 0" transform="translate(61.8207 175.217) rotate(-49)" stroke="black"/>
<path d="M0 0C0 1.3395 3.66225 2.43675 8.16525 2.43675C12.6682 2.43675 16.3305 1.3395 16.3305 0" transform="translate(65.3052 178.246) rotate(-49)" stroke="black"/>
<path fill-rule="evenodd" clip-rule="evenodd" d="M0 2.43675C0 1.09725 3.66225 0 8.16525 0C12.6682 0 16.3305 1.09725 16.3305 2.43675V20.805C16.3305 22.1445 12.6682 23.2418 8.16525 23.2418C3.66225 23.2418 0 22.1445 0 20.805L0 2.43675Z" transform="translate(74.4697 170.201) rotate(-49)" stroke="black"/>
<path d="M0 0C0 1.3395 3.66225 2.43675 8.16525 2.43675C12.6682 2.43675 16.3305 1.3395 16.3305 0" transform="translate(76.3088 171.8) rotate(-49)" stroke="black"/>
<path d="M0 0C0 1.3395 3.66225 2.43675 8.16525 2.43675C12.6682 2.43675 16.3305 1.3395 16.3305 0" transform="translate(79.7718 174.81) rotate(-49)" stroke="black"/>
<path d="M0 0C0 1.3395 3.66225 2.43675 8.16525 2.43675C12.6682 2.43675 16.3305 1.3395 16.3305 0" transform="translate(83.2455 177.83) rotate(-49)" stroke="black"/>
<path d="M0 0C0 1.3395 3.66225 2.43675 8.16525 2.43675C12.6682 2.43675 16.3305 1.3395 16.3305 0" transform="translate(86.7085 180.84) rotate(-49)" stroke="black"/>
<path fill-rule="evenodd" clip-rule="evenodd" d="M0 2.43675C0 1.09725 3.66225 0 8.16525 0C12.6682 0 16.3305 1.09725 16.3305 2.43675V11.6138C16.3305 12.9533 12.6682 14.0505 8.16525 14.0505C3.66225 14.0505 0 12.9533 0 11.6138L0 2.43675Z" transform="translate(65.876 195.943) rotate(-49)" stroke="black"/>
<path d="M0 0C0 1.3395 3.66225 2.43675 8.16525 2.43675C12.6682 2.43675 16.3305 1.3395 16.3305 0" transform="translate(67.715 197.542) rotate(-49)" stroke="black"/>
<path d="M0 0C0 1.3395 3.66225 2.43675 8.16525 2.43675C12.6682 2.43675 16.3305 1.3395 16.3305 0" transform="translate(71.178 200.552) rotate(-49)" stroke="black"/>
<path d="M0 28.7138V2.43675C0 1.09725 3.66225 0 8.16525 0C12.6682 0 16.3305 1.09725 16.3305 2.43675V18.1117" transform="translate(53.0771 167.616) rotate(-49)" stroke="black"/>
<path d="M8.721 0.171C7.4295 0.374185 6.12388 0.474251 4.8165 0.47025C3.19898 0.482261 1.58465 0.32465 0 0" transform="translate(82.8583 189.049) rotate(-49)" stroke="black"/>
<path d="M0 0C0 1.3395 3.66225 2.43675 8.16525 2.43675C9.47263 2.44075 10.7783 2.34068 12.0697 2.1375" transform="translate(68.7681 181.256) rotate(-49)" stroke="black"/>
<path d="M0 0C0 1.3395 3.66225 2.43675 8.16525 2.43675C9.47263 2.44075 10.7783 2.34068 12.0697 2.1375" transform="translate(72.2634 184.295) rotate(-49)" stroke="black"/>
<path d="M0 0C1.58465 0.32465 3.19898 0.482261 4.8165 0.47025C6.12388 0.474251 7.4295 0.374185 8.721 0.171" transform="translate(79.386 186.049) rotate(-49)" stroke="black"/>
<path d="M0 0C0 1.363 3.7265 2.4795 8.3085 2.4795C12.8905 2.4795 16.617 1.363 16.617 0" transform="translate(441.982 193.465) rotate(46)" stroke="black"/>
<path d="M0 0C0 1.363 3.7265 2.4795 8.3085 2.4795C12.8905 2.4795 16.617 1.363 16.617 0" transform="translate(445.34 190.222) rotate(46)" stroke="black"/>
<path d="M0 0.029C0 1.392 3.6685 2.4795 8.3085 2.4795C12.9485 2.4795 16.617 1.363 16.617 0" transform="translate(438.644 196.689) rotate(46)" stroke="black"/>
<path d="M0 0C0 1.363 3.7265 2.4795 8.3085 2.4795C12.8905 2.4795 16.617 1.363 16.617 0" transform="translate(435.265 199.952) rotate(46)" stroke="black"/>
<path fill-rule="evenodd" clip-rule="evenodd" d="M0 2.4795C0 1.1165 3.7265 0 8.3085 0C12.8905 0 16.617 1.1165 16.617 2.4795V21.17C16.617 22.533 12.8905 23.6495 8.3085 23.6495C3.7265 23.6495 0 22.533 0 21.17L0 2.4795Z" transform="translate(442.607 209.956) rotate(46)" stroke="black"/>
<path d="M0 0C0 1.363 3.7265 2.4795 8.3085 2.4795C12.8905 2.4795 16.617 1.363 16.617 0" transform="translate(440.823 211.678) rotate(46)" stroke="black"/>
<path d="M0 0C0 1.363 3.7265 2.4795 8.3085 2.4795C12.8905 2.4795 16.617 1.363 16.617 0" transform="translate(437.464 214.921) rotate(46)" stroke="black"/>
<path d="M0 0C0 1.363 3.7265 2.4795 8.3085 2.4795C12.8905 2.4795 16.617 1.363 16.617 0" transform="translate(434.095 218.175) rotate(46)" stroke="black"/>
<path d="M0 0C0 1.363 3.7265 2.4795 8.3085 2.4795C12.8905 2.4795 16.617 1.363 16.617 0" transform="translate(430.737 221.418) rotate(46)" stroke="black"/>
<path fill-rule="evenodd" clip-rule="evenodd" d="M0 2.4795C0 1.1165 3.7265 0 8.3085 0C12.8905 0 16.617 1.1165 16.617 2.4795V11.8175C16.617 13.1805 12.8905 14.297 8.3085 14.297C3.7265 14.297 0 13.1805 0 11.8175L0 2.4795Z" transform="translate(417.275 198.961) rotate(46)" stroke="black"/>
<path d="M0 0C0 1.363 3.7265 2.4795 8.3085 2.4795C12.8905 2.4795 16.617 1.363 16.617 0" transform="translate(415.491 200.684) rotate(46)" stroke="black"/>
<path d="M0 0C0 1.363 3.7265 2.4795 8.3085 2.4795C12.8905 2.4795 16.617 1.363 16.617 0" transform="translate(412.133 203.927) rotate(46)" stroke="black"/>
<path d="M0 29.2175V2.4795C0 1.1165 3.7265 0 8.3085 0C12.8905 0 16.617 1.1165 16.617 2.4795V18.4295" transform="translate(447.124 188.5) rotate(46)" stroke="black"/>
<path d="M8.874 0.174C7.55984 0.380749 6.23131 0.482571 4.901 0.4785C3.2551 0.490722 1.61245 0.330345 0 0" transform="translate(422.758 216.787) rotate(46)" stroke="black"/>
<path d="M0 0C0 1.363 3.7265 2.4795 8.3085 2.4795C9.63881 2.48357 10.9673 2.38175 12.2815 2.175" transform="translate(431.906 203.196) rotate(46)" stroke="black"/>
<path d="M0 0C0 1.363 3.7265 2.4795 8.3085 2.4795C9.63881 2.48357 10.9673 2.38175 12.2815 2.175" transform="translate(428.516 206.469) rotate(46)" stroke="black"/>
<path d="M0 0C1.61245 0.330345 3.2551 0.490722 4.901 0.4785C6.23131 0.482571 7.55984 0.380749 8.874 0.174" transform="translate(426.106 213.533) rotate(46)" stroke="black"/>
<path fill-rule="evenodd" clip-rule="evenodd" d="M0 2.29C0 1.02527 1.02527 0 2.29 0H20.065C21.3297 0 22.355 1.02527 22.355 2.29V12.3895C22.355 13.6542 21.3297 14.6795 20.065 14.6795H2.29C1.02527 14.6795 0 13.6542 0 12.3895V2.29Z" transform="translate(75.6205 249.443) rotate(-53)" stroke="black"/>
<path d="M1.9468 14.6795C1.42461 14.6796 0.924285 14.4698 0.558252 14.0974C0.192219 13.725 -0.00882385 13.2211 0.000297361 12.699V1.9465C0.000297361 0.871478 0.871775 0 1.9468 0H20.4173C21.4923 0 22.3638 0.871478 22.3638 1.9465" transform="translate(70.1616 250.204) rotate(-53)" stroke="black"/>
<path fill-rule="evenodd" clip-rule="evenodd" d="M0 1.96775C0 0.880992 0.880992 0 1.96775 0H4.83225C5.91901 0 6.8 0.880992 6.8 1.96775V1.96775C6.8 3.05451 5.91901 3.9355 4.83225 3.9355H1.96775C0.880992 3.9355 0 3.05451 0 1.96775V1.96775Z" transform="translate(89.4742 244.067) rotate(-53)" stroke="black"/>
<path d="M0 0H18.4705" transform="translate(80.7105 250.852) rotate(-53)" stroke="black"/>
<path fill-rule="evenodd" clip-rule="evenodd" d="M0 2.29C0 1.02527 1.02527 0 2.29 0H29.27C30.5347 0 31.56 1.02527 31.56 2.29V18.434C31.56 19.6987 30.5347 20.724 29.27 20.724H2.29C1.02527 20.724 0 19.6987 0 18.434V2.29Z" transform="translate(340.048 504.94) rotate(-53)" stroke="black"/>
<path d="M2.74842 20.724C2.01121 20.7241 1.30487 20.428 0.788121 19.9022C0.271369 19.3765 -0.0124572 18.6651 0.000419804 17.928V2.748C0.000419804 1.23032 1.23074 0 2.74842 0H28.8244C30.3421 0 31.5724 1.23032 31.5724 2.748" transform="translate(332.341 506.015) rotate(-53)" stroke="black"/>
<path fill-rule="evenodd" clip-rule="evenodd" d="M0 2C0 0.89543 0.89543 0 2 0H7.6C8.70457 0 9.6 0.895431 9.6 2V3.556C9.6 4.66057 8.70457 5.556 7.6 5.556H2C0.895431 5.556 0 4.66057 0 3.556V2Z" transform="translate(359.606 497.35) rotate(-53)" stroke="black"/>
<path d="M0 0H26.076" transform="translate(347.234 506.929) rotate(-53)" stroke="black"/>
<path fill-rule="evenodd" clip-rule="evenodd" d="M0 2.29C0 1.02527 1.02527 0 2.29 0H29.27C30.5347 0 31.56 1.02527 31.56 2.29V18.434C31.56 19.6987 30.5347 20.724 29.27 20.724H2.29C1.02527 20.724 0 19.6987 0 18.434V2.29Z" transform="translate(267.246 75.8494) rotate(7)" stroke="black"/>
<path d="M2.74842 20.724C2.01121 20.7241 1.30487 20.428 0.788121 19.9022C0.271369 19.3765 -0.0124572 18.6651 0.000419804 17.928V2.748C0.000419804 1.23032 1.23074 0 2.74842 0H28.8244C30.3421 0 31.5724 1.23032 31.5724 2.748" transform="translate(262.462 69.7126) rotate(7)" stroke="black"/>
<path fill-rule="evenodd" clip-rule="evenodd" d="M0 2C0 0.89543 0.89543 0 2 0H7.6C8.70457 0 9.6 0.895431 9.6 2V3.556C9.6 4.66057 8.70457 5.556 7.6 5.556H2C0.895431 5.556 0 4.66057 0 3.556V2Z" transform="translate(283.599 88.9922) rotate(7)" stroke="black"/>
<path d="M0 0H26.076" transform="translate(269.117 83.0671) rotate(7)" stroke="black"/>
<path fill-rule="evenodd" clip-rule="evenodd" d="M0 2.29C0 1.02527 1.02527 0 2.29 0H20.065C21.3297 0 22.355 1.02527 22.355 2.29V12.3895C22.355 13.6542 21.3297 14.6795 20.065 14.6795H2.29C1.02527 14.6795 0 13.6542 0 12.3895V2.29Z" transform="translate(456.424 297.585) rotate(-2)" stroke="black"/>
<path d="M1.9468 14.6795C1.42461 14.6796 0.924285 14.4698 0.558252 14.0974C0.192219 13.725 -0.00882385 13.2211 0.000297361 12.699V1.9465C0.000297361 0.871478 0.871775 0 1.9468 0H20.4173C21.4923 0 22.3638 0.871478 22.3638 1.9465" transform="translate(452.396 293.822) rotate(-2)" stroke="black"/>
<path fill-rule="evenodd" clip-rule="evenodd" d="M0 1.96775C0 0.880992 0.880992 0 1.96775 0H4.83225C5.91901 0 6.8 0.880992 6.8 1.96775V1.96775C6.8 3.05451 5.91901 3.9355 4.83225 3.9355H1.96775C0.880992 3.9355 0 3.05451 0 1.96775V1.96775Z" transform="translate(469.32 304.968) rotate(-2)" stroke="black"/>
<path d="M0 0H18.4705" transform="translate(458.532 302.427) rotate(-2)" stroke="black"/>
<path d="M3.336 35.316H2.4C1.07452 35.316 0 34.2415 0 32.916V2.4C0 1.07452 1.07452 0 2.4 0H24.36C25.6855 0 26.76 1.07452 26.76 2.4V3.336" transform="translate(355.943 57.9154) rotate(39)" stroke="black"/>
<path d="M3.336 35.328H2.4C1.07452 35.328 0 34.2535 0 32.928V2.4C0 1.07452 1.07452 0 2.4 0H24.36C25.6855 0 26.76 1.07452 26.76 2.4V9.6" transform="translate(356.445 62.6149) rotate(39)" stroke="black"/>
<path fill-rule="evenodd" clip-rule="evenodd" d="M26.748 33.18C26.7414 34.357 25.789 35.3094 24.612 35.316H2.136C0.959046 35.3094 0.006557 34.357 0 33.18V2.136C0.006557 0.959046 0.959046 0.006557 2.136 0H17.124L26.724 9.6L26.748 33.18Z" transform="translate(356.931 67.3162) rotate(39)" stroke="black"/>
<path fill-rule="evenodd" clip-rule="evenodd" d="M9.48 18.96C14.7157 18.96 18.96 14.7157 18.96 9.48C18.96 4.24434 14.7157 0 9.48 0C4.24434 0 0 4.24434 0 9.48C0 14.7157 4.24434 18.96 9.48 18.96Z" transform="translate(352.416 79.0701) rotate(39)" stroke="black"/>
<path d="M0 0V7.02H6.552" transform="translate(358.235 86.9479) rotate(39)" stroke="black"/>
<path d="M0 0H7.944" transform="translate(356.981 73.4711) rotate(39)" stroke="black"/>
<path d="M0 0H7.944" transform="translate(355.259 75.5974) rotate(39)" stroke="black"/>
<path d="M0 0V9.624H9.624" transform="translate(370.239 78.0927) rotate(39)" stroke="black" stroke-linejoin="round"/>
<path d="M2.7105 28.6943H1.95C0.873045 28.6943 0 27.8212 0 26.7442V1.95C0 0.873045 0.873045 0 1.95 0H19.7925C20.8695 0 21.7425 0.873045 21.7425 1.95V2.7105" transform="translate(146.593 470.603) rotate(39)" stroke="black"/>
<path d="M2.7105 28.704H1.95C0.873045 28.704 0 27.831 0 26.754V1.95C0 0.873045 0.873045 0 1.95 0H19.7925C20.8695 0 21.7425 0.873045 21.7425 1.95V7.8" transform="translate(147.001 474.421) rotate(39)" stroke="black"/>
<path fill-rule="evenodd" clip-rule="evenodd" d="M21.7327 26.9587C21.7274 27.915 20.9535 28.6889 19.9972 28.6943H1.7355C0.779225 28.6889 0.00532756 27.915 0 26.9587V1.7355C0.00532756 0.779225 0.779225 0.00532756 1.7355 0H13.9132L21.7132 7.8L21.7327 26.9587Z" transform="translate(147.396 478.241) rotate(39)" stroke="black"/>
<path fill-rule="evenodd" clip-rule="evenodd" d="M7.7025 15.405C11.9565 15.405 15.405 11.9565 15.405 7.7025C15.405 3.44853 11.9565 0 7.7025 0C3.44853 0 0 3.44853 0 7.7025C0 11.9565 3.44853 15.405 7.7025 15.405Z" transform="translate(143.727 487.791) rotate(39)" stroke="black"/>
<path d="M0 0V5.70375H5.3235" transform="translate(148.455 494.191) rotate(39)" stroke="black"/>
<path d="M0 0H6.4545" transform="translate(147.436 483.242) rotate(39)" stroke="black"/>
<path d="M0 0H6.4545" transform="translate(146.037 484.969) rotate(39)" stroke="black"/>
<path d="M0 0V7.8195H7.8195" transform="translate(158.208 486.997) rotate(39)" stroke="black" stroke-linejoin="round"/>
<path fill-rule="evenodd" clip-rule="evenodd" d="M0 0.5C0 0.223858 0.223858 0 0.5 0H6.172C6.44814 0 6.672 0.223858 6.672 0.5V24.172C6.672 24.4481 6.44814 24.672 6.172 24.672H0.5C0.223858 24.672 0 24.4481 0 24.172V0.5Z" transform="translate(179.819 56.9452) rotate(20)" stroke="black"/>
<path fill-rule="evenodd" clip-rule="evenodd" d="M1.44 2.88C2.23529 2.88 2.88 2.23529 2.88 1.44C2.88 0.64471 2.23529 0 1.44 0C0.64471 0 0 0.64471 0 1.44C0 2.23529 0.64471 2.88 1.44 2.88Z" transform="translate(180.971 59.3227) rotate(20)" stroke="black"/>
<path d="M0 0H3.888" transform="translate(174.152 76.5835) rotate(20)" stroke="black"/>
<path d="M0 0H3.888" transform="translate(173.608 78.0795) rotate(20)" stroke="black"/>
<path fill-rule="evenodd" clip-rule="evenodd" d="M0 0.5C0 0.223858 0.223858 0 0.5 0H6.172C6.44814 0 6.672 0.223858 6.672 0.5V24.172C6.672 24.4481 6.44814 24.672 6.172 24.672H0.5C0.223858 24.672 0 24.4481 0 24.172V0.5Z" transform="translate(187.592 59.7744) rotate(20)" stroke="black"/>
<path fill-rule="evenodd" clip-rule="evenodd" d="M1.44 2.88C2.23529 2.88 2.88 2.23529 2.88 1.44C2.88 0.64471 2.23529 0 1.44 0C0.64471 0 0 0.64471 0 1.44C0 2.23529 0.64471 2.88 1.44 2.88Z" transform="translate(188.744 62.1519) rotate(20)" stroke="black"/>
<path d="M0 0H3.888" transform="translate(181.925 79.4127) rotate(20)" stroke="black"/>
<path d="M0 0H3.888" transform="translate(181.381 80.9087) rotate(20)" stroke="black"/>
<path fill-rule="evenodd" clip-rule="evenodd" d="M0 0.5C0 0.223858 0.223858 0 0.5 0H6.172C6.44814 0 6.672 0.223858 6.672 0.5V24.172C6.672 24.4481 6.44814 24.672 6.172 24.672H0.5C0.223858 24.672 0 24.4481 0 24.172V0.5Z" transform="translate(195.365 62.6036) rotate(20)" stroke="black"/>
<path fill-rule="evenodd" clip-rule="evenodd" d="M1.44 2.88C2.23529 2.88 2.88 2.23529 2.88 1.44C2.88 0.64471 2.23529 0 1.44 0C0.64471 0 0 0.64471 0 1.44C0 2.23529 0.64471 2.88 1.44 2.88Z" transform="translate(196.517 64.9811) rotate(20)" stroke="black"/>
<path d="M0 0H3.888" transform="translate(189.698 82.2419) rotate(20)" stroke="black"/>
<path d="M0 0H3.888" transform="translate(189.154 83.7379) rotate(20)" stroke="black"/>
<path fill-rule="evenodd" clip-rule="evenodd" d="M0 0.5C0 0.223858 0.223858 0 0.5 0H6.7975C7.07364 0 7.2975 0.223858 7.2975 0.5V26.485C7.2975 26.7611 7.07364 26.985 6.7975 26.985H0.5C0.223858 26.985 0 26.7611 0 26.485V0.5Z" transform="translate(413.383 372.405) rotate(-109)" stroke="black"/>
<path fill-rule="evenodd" clip-rule="evenodd" d="M1.575 3.15C2.44485 3.15 3.15 2.44485 3.15 1.575C3.15 0.705152 2.44485 0 1.575 0C0.705152 0 0 0.705152 0 1.575C0 2.44485 0.705152 3.15 1.575 3.15Z" transform="translate(414.611 369.789) rotate(-109)" stroke="black"/>
<path d="M0 0H4.2525" transform="translate(433.976 363.704) rotate(-109)" stroke="black"/>
<path d="M0 0H4.2525" transform="translate(435.623 363.137) rotate(-109)" stroke="black"/>
<path fill-rule="evenodd" clip-rule="evenodd" d="M0 0.5C0 0.223858 0.223858 0 0.5 0H6.7975C7.07364 0 7.2975 0.223858 7.2975 0.5V26.485C7.2975 26.7611 7.07364 26.985 6.7975 26.985H0.5C0.223858 26.985 0 26.7611 0 26.485V0.5Z" transform="translate(410.438 363.85) rotate(-109)" stroke="black"/>
<path fill-rule="evenodd" clip-rule="evenodd" d="M1.575 3.15C2.44485 3.15 3.15 2.44485 3.15 1.575C3.15 0.705152 2.44485 0 1.575 0C0.705152 0 0 0.705152 0 1.575C0 2.44485 0.705152 3.15 1.575 3.15Z" transform="translate(411.666 361.234) rotate(-109)" stroke="black"/>
<path d="M0 0H4.2525" transform="translate(431.031 355.149) rotate(-109)" stroke="black"/>
<path d="M0 0H4.2525" transform="translate(432.677 354.582) rotate(-109)" stroke="black"/>
<path fill-rule="evenodd" clip-rule="evenodd" d="M0 0.5C0 0.223858 0.223858 0 0.5 0H6.7975C7.07364 0 7.2975 0.223858 7.2975 0.5V26.485C7.2975 26.7611 7.07364 26.985 6.7975 26.985H0.5C0.223858 26.985 0 26.7611 0 26.485V0.5Z" transform="translate(407.492 355.296) rotate(-109)" stroke="black"/>
<path fill-rule="evenodd" clip-rule="evenodd" d="M1.575 3.15C2.44485 3.15 3.15 2.44485 3.15 1.575C3.15 0.705152 2.44485 0 1.575 0C0.705152 0 0 0.705152 0 1.575C0 2.44485 0.705152 3.15 1.575 3.15Z" transform="translate(408.72 352.68) rotate(-109)" stroke="black"/>
<path d="M0 0H4.2525" transform="translate(428.085 346.595) rotate(-109)" stroke="black"/>
<path d="M0 0H4.2525" transform="translate(429.732 346.028) rotate(-109)" stroke="black"/>
<path fill-rule="evenodd" clip-rule="evenodd" d="M0 0.499999C0 0.223857 0.223858 0 0.5 0H9.508C9.78414 0 10.008 0.223858 10.008 0.5V36.508C10.008 36.7841 9.78414 37.008 9.508 37.008H0.5C0.223858 37.008 0 36.7841 0 36.508V0.499999Z" transform="translate(49.6248 377.577) rotate(101)" stroke="black"/>
<path fill-rule="evenodd" clip-rule="evenodd" d="M2.16 4.32C3.35294 4.32 4.32 3.35294 4.32 2.16C4.32 0.967065 3.35294 0 2.16 0C0.967065 0 0 0.967065 0 2.16C0 3.35294 0.967065 4.32 2.16 4.32Z" transform="translate(46.3729 379.842) rotate(101)" stroke="black"/>
<path d="M0 0H5.832" transform="translate(19.2004 373.79) rotate(101)" stroke="black"/>
<path d="M0 0H5.832" transform="translate(16.8563 373.335) rotate(101)" stroke="black"/>
<path fill-rule="evenodd" clip-rule="evenodd" d="M0 0.499999C0 0.223857 0.223858 0 0.5 0H9.508C9.78414 0 10.008 0.223858 10.008 0.5V36.508C10.008 36.7841 9.78414 37.008 9.508 37.008H0.5C0.223858 37.008 0 36.7841 0 36.508V0.499999Z" transform="translate(47.2573 389.757) rotate(101)" stroke="black"/>
<path fill-rule="evenodd" clip-rule="evenodd" d="M2.16 4.32C3.35294 4.32 4.32 3.35294 4.32 2.16C4.32 0.967065 3.35294 0 2.16 0C0.967065 0 0 0.967065 0 2.16C0 3.35294 0.967065 4.32 2.16 4.32Z" transform="translate(44.0053 392.022) rotate(101)" stroke="black"/>
<path d="M0 0H5.832" transform="translate(16.8329 385.97) rotate(101)" stroke="black"/>
<path d="M0 0H5.832" transform="translate(14.4887 385.515) rotate(101)" stroke="black"/>
<path fill-rule="evenodd" clip-rule="evenodd" d="M0 0.499999C0 0.223857 0.223858 0 0.5 0H9.508C9.78414 0 10.008 0.223858 10.008 0.5V36.508C10.008 36.7841 9.78414 37.008 9.508 37.008H0.5C0.223858 37.008 0 36.7841 0 36.508V0.499999Z" transform="translate(44.8897 401.937) rotate(101)" stroke="black"/>
<path fill-rule="evenodd" clip-rule="evenodd" d="M2.16 4.32C3.35294 4.32 4.32 3.35294 4.32 2.16C4.32 0.967065 3.35294 0 2.16 0C0.967065 0 0 0.967065 0 2.16C0 3.35294 0.967065 4.32 2.16 4.32Z" transform="translate(41.6378 404.202) rotate(101)" stroke="black"/>
<path d="M0 0H5.832" transform="translate(14.4653 398.15) rotate(101)" stroke="black"/>
<path d="M0 0H5.832" transform="translate(12.1212 397.695) rotate(101)" stroke="black"/>
<path d="M32.66 32.66H0V0" transform="translate(52.4047 344.466) rotate(-72)" stroke="black"/>
<path fill-rule="evenodd" clip-rule="evenodd" d="M0 0H4.738V2.5875H0V0Z" transform="translate(78.9625 349.105) rotate(-72)" stroke="black"/>
<path fill-rule="evenodd" clip-rule="evenodd" d="M0 0H4.738V5.934H0V0Z" transform="translate(77.976 341.312) rotate(-72)" stroke="black"/>
<path fill-rule="evenodd" clip-rule="evenodd" d="M0 0H4.738V9.959H0V0Z" transform="translate(76.3442 333.309) rotate(-72)" stroke="black"/>
<path fill-rule="evenodd" clip-rule="evenodd" d="M0 0H4.738V14.099H0V0Z" transform="translate(74.603 325.27) rotate(-72)" stroke="black"/>
<path d="M0 16.5945L27.5195 0" transform="translate(59.3802 343.54) rotate(-72)" stroke="black"/>
<path d="M0 0L4.6575 1.15L3.496 5.8075" transform="translate(65.3512 321.442) rotate(-72)" stroke="black"/>
<path d="M32.66 32.66H0V0" transform="translate(436.971 394.238) rotate(35)" stroke="black"/>
<path fill-rule="evenodd" clip-rule="evenodd" d="M0 0H4.738V2.5875H0V0Z" transform="translate(424.771 418.28) rotate(35)" stroke="black"/>
<path fill-rule="evenodd" clip-rule="evenodd" d="M0 0H4.738V5.934H0V0Z" transform="translate(432.512 419.615) rotate(35)" stroke="black"/>
<path fill-rule="evenodd" clip-rule="evenodd" d="M0 0H4.738V9.959H0V0Z" transform="translate(440.642 420.394) rotate(35)" stroke="black"/>
<path fill-rule="evenodd" clip-rule="evenodd" d="M0 0H4.738V14.099H0V0Z" transform="translate(448.838 421.079) rotate(35)" stroke="black"/>
<path d="M0 16.5945L27.5195 0" transform="translate(435.817 401.18) rotate(35)" stroke="black"/>
<path d="M0 0L4.6575 1.15L3.496 5.8075" transform="translate(455.204 413.351) rotate(35)" stroke="black"/>
<path fill-rule="evenodd" clip-rule="evenodd" d="M19.0238 0C8.51722 0 0 8.51722 0 19.0238C0 29.5303 8.51722 38.0475 19.0238 38.0475C29.5303 38.0475 38.0475 29.5303 38.0475 19.0238H19.0238V0Z" transform="translate(94.2189 45.5889) rotate(-22)" stroke="black"/>
<path fill-rule="evenodd" clip-rule="evenodd" d="M0 0V19.0238H19.0238C19.0238 13.9783 17.0195 9.13957 13.4518 5.57193C9.88418 2.00428 5.04541 0 0 0Z" transform="translate(114.22 32.8974) rotate(-22)" stroke="black"/>
<path d="M0 3.49125L3.49125 0" transform="translate(114.342 33.2012) rotate(-22)" stroke="black"/>
<path d="M0 7.22475L7.22475 0" transform="translate(114.753 34.2186) rotate(-22)" stroke="black"/>
<path d="M0 10.3883L10.4025 0" transform="translate(115.378 35.7644) rotate(-22)" stroke="black"/>
<path d="M0 13.0957L13.0957 0" transform="translate(116.179 37.7463) rotate(-22)" stroke="black"/>
<path d="M0 11.2432L11.2432 0" transform="translate(120.966 38.5632) rotate(-22)" stroke="black"/>
<path d="M0 8.16525L8.16525 0" transform="translate(126.627 39.565) rotate(-22)" stroke="black"/>
<path d="M0 4.6455L4.6455 0" transform="translate(132.417 41.0374) rotate(-22)" stroke="black"/>
<path fill-rule="evenodd" clip-rule="evenodd" d="M13.35 0C5.977 0 0 5.977 0 13.35C0 20.723 5.977 26.7 13.35 26.7C20.723 26.7 26.7 20.723 26.7 13.35H13.35V0Z" transform="translate(68.2139 428.607) rotate(-72)" stroke="black"/>
<path fill-rule="evenodd" clip-rule="evenodd" d="M0 0V13.35H13.35C13.35 9.80936 11.9435 6.41374 9.43988 3.91012C6.93626 1.40651 3.54064 0 0 0Z" transform="translate(70.4131 412.13) rotate(-72)" stroke="black"/>
<path d="M0 2.45L2.45 0" transform="translate(70.6318 412.201) rotate(-72)" stroke="black"/>
<path d="M0 5.07L5.07 0" transform="translate(71.3641 412.439) rotate(-72)" stroke="black"/>
<path d="M0 7.29L7.3 0" transform="translate(72.4769 412.801) rotate(-72)" stroke="black"/>
<path d="M0 9.19L9.19 0" transform="translate(73.9035 413.264) rotate(-72)" stroke="black"/>
<path d="M0 7.89L7.89 0" transform="translate(76.502 411.059) rotate(-72)" stroke="black"/>
<path d="M0 5.73L5.73 0" transform="translate(79.5941 408.468) rotate(-72)" stroke="black"/>
<path d="M0 3.26L3.26 0" transform="translate(82.9972 406.02) rotate(-72)" stroke="black"/>
<path d="M15.6602 4.15325V1.24875C15.6552 0.561182 15.0991 0.00503733 14.4115 0H1.24875C0.561182 0.00503733 0.00503733 0.561182 0 1.24875V4.15325" transform="translate(350.578 22.3365) rotate(40)" stroke="black"/>
<path fill-rule="evenodd" clip-rule="evenodd" d="M0 0H17.094V1.702H0V0Z" transform="translate(347.405 25.0959) rotate(40)" stroke="black"/>
<path d="M12.2563 16.1763C10.1347 16.1712 8.41749 14.4499 8.4175 12.3283C8.48552 10.1791 9.01221 8.06918 9.96225 6.14009V6.14009C10.8406 4.34703 10.3571 2.1846 8.79889 0.936259C7.24065 -0.312086 5.02485 -0.312086 3.46661 0.936259C1.90837 2.1846 1.42494 4.34703 2.30325 6.14009V6.14009C3.25329 8.06918 3.77998 10.1791 3.848 12.3283C3.848 14.4535 2.12519 16.1763 0 16.1763" transform="translate(362.272 11.0328) rotate(40)" stroke="black"/>
<path fill-rule="evenodd" clip-rule="evenodd" d="M5.3095 10.619C8.24186 10.619 10.619 8.24186 10.619 5.3095C10.619 2.37714 8.24186 0 5.3095 0C2.37714 0 0 2.37714 0 5.3095C0 8.24186 2.37714 10.619 5.3095 10.619Z" transform="translate(369.012 22.0829) rotate(40)" stroke="black"/>
<path d="M0 0H3.50575" transform="translate(369.61 26.8957) rotate(40)" stroke="black"/>
<path d="M0 0H3.50575" transform="translate(367.03 29.971) rotate(40)" stroke="black"/>
<path d="M0 0H6.68775" transform="translate(367.101 27.4107) rotate(40)" stroke="black"/>
<path d="M28.781 7.633V2.295C28.7717 1.03136 27.7496 0.0092578 26.486 0H2.295C1.03136 0.0092578 0.0092578 1.03136 0 2.295V7.633" transform="translate(84.0995 485.689) rotate(-126)" stroke="black"/>
<path fill-rule="evenodd" clip-rule="evenodd" d="M0 0H31.416V3.128H0V0Z" transform="translate(90.9842 482.178) rotate(-126)" stroke="black"/>
<path d="M22.525 29.7295C18.6259 29.7201 15.47 26.5566 15.47 22.6575C15.595 18.7075 16.563 14.8298 18.309 11.2845V11.2845C19.9232 7.98914 19.0347 4.01495 16.1709 1.72069C13.3071 -0.573564 9.23486 -0.573564 6.37107 1.72069C3.50728 4.01495 2.61881 7.98914 4.233 11.2845V11.2845C5.97903 14.8298 6.94699 18.7075 7.072 22.6575C7.072 26.5632 3.90576 29.7295 0 29.7295" transform="translate(58.2192 500.646) rotate(-126)" stroke="black"/>
<path fill-rule="evenodd" clip-rule="evenodd" d="M9.758 19.516C15.1472 19.516 19.516 15.1472 19.516 9.758C19.516 4.36881 15.1472 0 9.758 0C4.36881 0 0 4.36881 0 9.758C0 15.1472 4.36881 19.516 9.758 19.516Z" transform="translate(51.1143 477.945) rotate(-126)" stroke="black"/>
<path d="M0 0H6.443" transform="translate(52.1871 469.096) rotate(-126)" stroke="black"/>
<path d="M0 0H6.443" transform="translate(58.1561 464.76) rotate(-126)" stroke="black"/>
<path d="M0 0H12.291" transform="translate(56.8903 469.294) rotate(-126)" stroke="black"/>
<path fill-rule="evenodd" clip-rule="evenodd" d="M25.75 0H2.14C0.960386 0.00547394 0.00547394 0.960386 0 2.14V1.86C0.00547394 3.03961 0.960386 3.99453 2.14 4H27.89V2.15C27.89 0.966482 26.9335 0.00550473 25.75 0V0Z" transform="translate(238.666 20.9798) rotate(23)" stroke="black"/>
<path d="M0 0H22.54" transform="translate(240.387 23.7851) rotate(23)" stroke="black"/>
<path fill-rule="evenodd" clip-rule="evenodd" d="M9.04 0H2.14C0.960386 0.00547394 0.00547394 0.960386 0 2.14V4.46C0.00547394 5.63961 0.960386 6.59453 2.14 6.6H9.04V0Z" transform="translate(253.46 37.4167) rotate(23)" stroke="black"/>
<path fill-rule="evenodd" clip-rule="evenodd" d="M1.62 3.24C2.5147 3.24 3.24 2.5147 3.24 1.62C3.24 0.725299 2.5147 0 1.62 0C0.725299 0 0 0.725299 0 1.62C0 2.5147 0.725299 3.24 1.62 3.24Z" transform="translate(254.497 39.6821) rotate(23)" stroke="black"/>
<path d="M27.89 9.34V2.14C27.8845 0.960386 26.9296 0.00547394 25.75 0H2.14C0.960386 0.00547394 0.00547394 0.960386 0 2.14V18.98C-1.28018e-05 20.1635 0.956495 21.1245 2.14 21.13H27.89V15.94" transform="translate(238.662 20.989) rotate(23)" stroke="black"/>
<path fill-rule="evenodd" clip-rule="evenodd" d="M36.6937 0H3.0495C1.36855 0.00780036 0.00780036 1.36855 0 3.0495V2.6505C0.00780036 4.33145 1.36855 5.6922 3.0495 5.7H39.7433V3.06375C39.7433 1.37724 38.3802 0.00784425 36.6937 0V0Z" transform="translate(410.329 465.928) rotate(16)" stroke="black"/>
<path d="M0 0H32.1195" transform="translate(413.25 469.597) rotate(16)" stroke="black"/>
<path fill-rule="evenodd" clip-rule="evenodd" d="M12.882 0H3.0495C1.36855 0.00780036 0.00780036 1.36855 0 3.0495V6.3555C0.00780036 8.03645 1.36855 9.3972 3.0495 9.405H12.882V0Z" transform="translate(434.108 486.607) rotate(16)" stroke="black"/>
<path fill-rule="evenodd" clip-rule="evenodd" d="M2.3085 4.617C3.58345 4.617 4.617 3.58345 4.617 2.3085C4.617 1.03355 3.58345 0 2.3085 0C1.03355 0 0 1.03355 0 2.3085C0 3.58345 1.03355 4.617 2.3085 4.617Z" transform="translate(435.968 489.631) rotate(16)" stroke="black"/>
<path d="M39.7433 13.3095V3.0495C39.7355 1.36855 38.3747 0.00780036 36.6937 0H3.0495C1.36855 0.00780036 0.00780036 1.36855 0 3.0495V27.0465C-1.82425e-05 28.733 1.36301 30.1024 3.0495 30.1103H39.7433V22.7145" transform="translate(410.325 465.941) rotate(16)" stroke="black"/>
</g>
</svg>
