<svg width="14" height="14" viewBox="0 0 14 14" fill="none" xmlns="http://www.w3.org/2000/svg">
<path fill-rule="evenodd" clip-rule="evenodd" d="M14 14H11.2V9.10072C11.2 7.75672 10.6071 7.00702 9.54382 7.00702C8.38672 7.00702 7.70002 7.78822 7.70002 9.10072V14H4.90002V4.90002H7.70002V5.92342C7.70002 5.92342 8.57852 4.38202 10.5581 4.38202C12.5384 4.38202 14 5.59022 14 8.09062V14ZM1.70941 3.4447C1.25426 3.44303 0.818419 3.26057 0.497824 2.93748C0.177229 2.61439 -0.00184573 2.17715 1.43471e-05 1.722C-0.00165959 1.26697 0.177498 0.829907 0.498073 0.506968C0.818648 0.18403 1.25438 0.0016678 1.70941 0C2.6567 0.0038585 3.4216 0.774715 3.41811 1.722C3.42016 2.17709 3.24124 2.61433 2.92075 2.93744C2.60027 3.26055 2.1645 3.44303 1.70941 3.4447ZM0 14H3.5V4.90002H0V14Z" fill="#2B2B2B"/>
</svg>
