<svg width="17" height="13" viewBox="0 0 17 13" fill="none" xmlns="http://www.w3.org/2000/svg">
<path fill-rule="evenodd" clip-rule="evenodd" d="M5.3465 13C11.7614 13 15.2703 7.99834 15.2703 3.66049C15.2703 3.5183 15.2702 3.37612 15.26 3.23637C15.9413 2.77301 16.5305 2.19714 17 1.53584C16.3629 1.80204 15.688 1.97646 14.9974 2.05339C15.7223 1.64653 16.2673 1.00131 16.5308 0.238301C15.8446 0.620996 15.0957 0.890192 14.3157 1.03454C12.9847 -0.287514 10.7925 -0.350674 9.3806 0.892352C8.47731 1.68739 8.09179 2.88572 8.37165 4.02854C5.57815 3.90108 2.96944 2.6568 1.1832 0.599857C0.258273 2.10114 0.734531 4.03241 2.26355 4.98077C1.70917 4.96573 1.16644 4.82511 0.68 4.57047V4.61191C0.68085 6.17513 1.8513 7.51979 3.4782 7.82935C2.96462 7.96139 2.42643 7.98056 1.904 7.88541C2.36045 9.22276 3.6703 10.1384 5.16205 10.1652C3.69458 11.2482 1.84071 11.7367 0 11.5253C1.60037 12.4901 3.45445 13.0006 5.3465 12.9976" fill="#2B2B2B"/>
</svg>
